<?xml version="1.0" encoding="UTF-8" standalone="no"?>
<svg
   xmlns:osb="http://www.openswatchbook.org/uri/2009/osb"
   xmlns:dc="http://purl.org/dc/elements/1.1/"
   xmlns:cc="http://creativecommons.org/ns#"
   xmlns:rdf="http://www.w3.org/1999/02/22-rdf-syntax-ns#"
   xmlns:svg="http://www.w3.org/2000/svg"
   xmlns="http://www.w3.org/2000/svg"
   xmlns:xlink="http://www.w3.org/1999/xlink"
   xmlns:sodipodi="http://sodipodi.sourceforge.net/DTD/sodipodi-0.dtd"
   xmlns:inkscape="http://www.inkscape.org/namespaces/inkscape"
   width="800"
   height="800"
   viewBox="0 0 211.66577 211.66587"
   version="1.1"
   id="svg8"
   sodipodi:docname="favicon.svg"
   inkscape:version="1.0.2 (e86c870879, 2021-01-15, custom)">
  <defs
     id="defs2">
    <inkscape:path-effect
       effect="bspline"
       id="path-effect1300"
       is_visible="true"
       lpeversion="1"
       weight="33.333333"
       steps="2"
       helper_size="0"
       apply_no_weight="true"
       apply_with_weight="true"
       only_selected="false" />
    <linearGradient
       inkscape:collect="always"
       id="linearGradient1088">
      <stop
         style="stop-color:#000000;stop-opacity:0;"
         offset="0"
         id="stop1086" />
      <stop
         style="stop-color:#000000;stop-opacity:0"
         offset="0.98904556"
         id="stop1092" />
      <stop
         style="stop-color:#000000;stop-opacity:1;"
         offset="1"
         id="stop1084" />
    </linearGradient>
    <linearGradient
       inkscape:collect="always"
       id="linearGradient1031">
      <stop
         style="stop-color:#000000;stop-opacity:1;"
         offset="0"
         id="stop1027" />
      <stop
         style="stop-color:#000000;stop-opacity:0;"
         offset="1"
         id="stop1029" />
    </linearGradient>
    <linearGradient
       id="linearGradient849"
       osb:paint="solid">
      <stop
         style="stop-color:#000000;stop-opacity:1;"
         offset="0"
         id="stop847" />
    </linearGradient>
    <radialGradient
       inkscape:collect="always"
       xlink:href="#linearGradient1031"
       id="radialGradient1033"
       cx="104.61777"
       cy="124.01427"
       fx="104.61777"
       fy="124.01427"
       r="22.389002"
       gradientUnits="userSpaceOnUse" />
    <radialGradient
       inkscape:collect="always"
       xlink:href="#linearGradient1088"
       id="radialGradient1074"
       gradientUnits="userSpaceOnUse"
       cx="104.74245"
       cy="124.01427"
       fx="104.74245"
       fy="124.01427"
       r="22.389002"
       gradientTransform="matrix(0.16462994,-5.5761929e-4,5.5773176e-4,0.16466117,88.56715,63.488314)" />
  </defs>
  <sodipodi:namedview
     id="base"
     pagecolor="#ffffff"
     bordercolor="#666666"
     borderopacity="1.0"
     inkscape:pageopacity="0"
     inkscape:pageshadow="2"
     inkscape:zoom="1.0610016"
     inkscape:cx="412.46575"
     inkscape:cy="389.93374"
     inkscape:document-units="px"
     inkscape:current-layer="layer2"
     inkscape:document-rotation="0"
     showgrid="false"
     inkscape:window-width="1920"
     inkscape:window-height="1028"
     inkscape:window-x="-6"
     inkscape:window-y="-6"
     inkscape:window-maximized="1"
     showguides="false"
     units="px"
     inkscape:pagecheckerboard="true"
     inkscape:snap-grids="true"
     inkscape:snap-page="false"
     inkscape:snap-center="false"
     borderlayer="false"
     showborder="true">
    <inkscape:grid
       type="xygrid"
       id="grid901" />
  </sodipodi:namedview>
  <metadata
     id="metadata5">
    <rdf:RDF>
      <cc:Work
         rdf:about="">
        <dc:format>image/svg+xml</dc:format>
        <dc:type
           rdf:resource="http://purl.org/dc/dcmitype/StillImage" />
        <dc:title></dc:title>
      </cc:Work>
    </rdf:RDF>
  </metadata>
  <g
     inkscape:groupmode="layer"
     id="layer2"
     inkscape:label="BG"
     sodipodi:insensitive="true"
     style="display:inline">
    <rect
       style="fill:#ffffff;fill-rule:evenodd;stroke:#ffffff;stroke-width:1.99999"
       id="rect906"
       width="226.42821"
       height="226.92696"
       x="-3.2418137"
       y="-2.4937029" />
  </g>
  <g
     inkscape:label="Calque 1"
     inkscape:groupmode="layer"
     id="layer1"
     style="opacity:1">
    <circle
       style="opacity:1;mix-blend-mode:normal;fill:#000000;fill-opacity:0;fill-rule:evenodd;stroke:#000000;stroke-width:2;stroke-miterlimit:4;stroke-dasharray:none;stroke-opacity:1"
       id="path18"
       cx="105.83714"
       cy="105.35711"
       r="43.089287" />
    <circle
       style="opacity:1;mix-blend-mode:normal;fill:url(#radialGradient1074);fill-opacity:1;fill-rule:nonzero;stroke:#000000;stroke-width:1.97357;stroke-miterlimit:4;stroke-dasharray:none;stroke-opacity:1"
       id="path853"
       cx="105.75548"
       cy="83.850372"
       r="21.402216" />
    <circle
       style="opacity:1;mix-blend-mode:normal;fill:none;fill-opacity:0;stroke:none;stroke-width:2;stroke-miterlimit:4;stroke-dasharray:none;stroke-opacity:1"
       id="path857"
       cx="105.82607"
       cy="83.821396"
       r="3.3503106" />
    <circle
       style="mix-blend-mode:normal;fill:#000000;fill-opacity:0.995935;stroke:#000000;stroke-width:2;stroke-miterlimit:4;stroke-dasharray:none;stroke-opacity:1"
       id="path857-2"
       cx="105.70253"
       cy="127.01175"
       r="3.3503106" />
    <path
       style="mix-blend-mode:normal;fill:#000000;fill-opacity:0;stroke:#000000;stroke-width:1.9846;stroke-miterlimit:4;stroke-dasharray:none;stroke-opacity:1"
       id="path853-0"
       sodipodi:type="arc"
       sodipodi:cx="105.74667"
       sodipodi:cy="126.85268"
       sodipodi:rx="21.476004"
       sodipodi:ry="21.56863"
       sodipodi:start="4.712389"
       sodipodi:end="1.5707963"
       sodipodi:arc-type="arc"
       d="m 105.74667,105.28405 a 21.476004,21.56863 0 0 1 21.47601,21.56863 21.476004,21.56863 0 0 1 -21.47601,21.56863"
       sodipodi:open="true" />
    <path
       style="opacity:0;mix-blend-mode:normal;fill:#000000;fill-opacity:0;fill-rule:nonzero;stroke:none;stroke-width:0.942507;stroke-miterlimit:4;stroke-dasharray:none;stroke-opacity:1"
       d="m 119.28534,145.01842 c 0,-0.0681 0.12625,-0.20785 0.28054,-0.31051 0.1543,-0.10266 0.67331,-0.53442 1.15335,-0.95947 3.53132,-3.12678 6.08765,-7.63922 7.06622,-12.4733 0.25281,-1.24886 0.29026,-1.79591 0.29026,-4.23932 0,-3.15632 -0.18394,-4.4323 -1.00356,-6.96171 -0.56781,-1.75224 -1.96659,-4.5319 -3.01672,-5.99474 -0.98829,-1.37673 -2.82889,-3.34908 -4.07739,-4.36927 -1.93194,-1.57864 -4.4161,-2.98844 -6.71311,-3.80977 -0.53384,-0.19089 -0.95323,-0.39922 -0.93198,-0.46297 0.0213,-0.0637 0.61998,-0.33527 1.33053,-0.60338 7.27953,-2.7468 12.56146,-8.998867 14.12592,-16.720704 0.25152,-1.241474 0.28576,-1.769131 0.2818,-4.343246 -0.004,-2.566605 -0.0396,-3.092512 -0.28728,-4.239282 -1.17362,-5.433724 -3.98632,-10.037951 -8.11244,-13.279593 -0.70785,-0.556097 -0.91225,-0.809814 -0.65243,-0.809814 0.17759,0 2.61562,0.937714 3.83695,1.475751 6.73535,2.967205 12.89522,7.994346 17.21274,14.047526 3.3377,4.679473 5.7494,10.173944 6.90231,15.725194 0.54312,2.615088 0.75663,4.553208 0.82934,7.528438 0.0775,3.17137 -0.0487,5.2689 -0.47269,7.85523 -2.1686,13.22859 -10.52206,24.68298 -22.39152,30.70353 -2.82905,1.43499 -5.65084,2.55425 -5.65084,2.24141 z"
       id="path1102" />
    <path
       style="mix-blend-mode:normal;fill:#000000;fill-opacity:1;stroke:#000000;stroke-width:0.264583px;stroke-linecap:butt;stroke-linejoin:miter;stroke-opacity:1"
       d="m 110.11284,105.46848 6.73306,-41.76937 8.35396,3.117122 6.98242,4.488656 4.73806,4.363977 4.48869,5.61082 4.61336,7.730475 1.99498,8.353795 0.74811,6.234235 -0.49874,10.22426 -3.24183,8.97739 -3.98994,7.2318 -4.11463,5.23681 -5.2368,4.48868 -5.3615,3.36651 -9.22677,3.36652 6.10961,-6.48366 2.61841,-5.86022 1.74561,-6.35899 -0.87281,-5.11213 -1.62091,-5.3615 -2.7431,-3.6159 -3.11715,-3.49122 -3.74059,-2.24435 -3.4912,-1.49623 z"
       id="path1116" />
    <path
       style="mix-blend-mode:normal;fill:none;stroke:#000000;stroke-width:2;stroke-linecap:butt;stroke-linejoin:miter;stroke-miterlimit:4;stroke-dasharray:none;stroke-opacity:1"
       d="m 78.19334,71.304888 c 0,0 -6.982396,-11.471011 -5.236797,-22.193972 1.745599,-10.722972 9.476106,-15.710386 9.476106,-15.710386 0,0 12.49065,-12.012518 13.964792,-28.4283281 l 8.229209,11.9698351 7.73054,-11.7204641 c 0.786,15.8775021 14.83148,24.9555981 17.95481,30.1739251 10.51428,17.566841 7.85517,23.939617 7.85517,23.939617"
       id="path1350"
       sodipodi:nodetypes="csccccsc" />
    <path
       style="mix-blend-mode:normal;fill:none;stroke:#000000;stroke-width:2.07343;stroke-linecap:butt;stroke-linejoin:miter;stroke-miterlimit:4;stroke-dasharray:none;stroke-opacity:1"
       d="m 105.7076,61.809123 c 0,0 4.46414,-7.381074 1.31299,-17.561897 -3.15116,-10.180817 -1.83818,-17.816424 -1.83818,-17.816424 v 0"
       id="path1352" />
    <path
       style="mix-blend-mode:normal;fill:none;stroke:#000000;stroke-width:2;stroke-linecap:butt;stroke-linejoin:miter;stroke-miterlimit:4;stroke-dasharray:none;stroke-opacity:1"
       d="m 128.77364,68.068826 c 0,0 8.31727,-10.543451 18.97611,-12.645665 10.65886,-2.102209 18.02845,3.404563 18.02845,3.404563 0,0 15.6135,7.519121 31.51337,3.177836 l -8.34996,11.885914 13.6802,3.159492 c -14.6074,6.271937 -18.86544,22.148884 -22.02157,27.347434 -12.52997,20.63845 -21.28435,17.51378 -21.28435,17.51378"
       id="path1350-3"
       sodipodi:nodetypes="csccccsc" />
    <path
       style="mix-blend-mode:normal;fill:none;stroke:#000000;stroke-width:2;stroke-linecap:butt;stroke-linejoin:miter;stroke-miterlimit:4;stroke-dasharray:none;stroke-opacity:1"
       d="m 147.01514,115.03005 c 0,0 12.65443,4.49517 18.06501,13.91623 5.4106,9.42105 2.55915,18.16773 2.55915,18.16773 0,0 -2.11266,17.20045 7.10002,30.8672 l -13.93647,-4.09546 1.39631,13.97074 c -10.62669,-11.82316 -26.9516,-11.18885 -32.96701,-12.08407 -28.21489,-4.19902 -24.10597,-26.68164 -24.10597,-26.68164"
       id="path1350-3-5"
       sodipodi:nodetypes="csccccsc" />
    <path
       style="mix-blend-mode:normal;fill:none;stroke:#000000;stroke-width:2;stroke-linecap:butt;stroke-linejoin:miter;stroke-miterlimit:4;stroke-dasharray:none;stroke-opacity:1"
       d="m 105.08571,149.29794 c 0,0 -1.90732,13.29297 -10.074128,20.45766 -8.166867,7.16473 -17.30443,6.09695 -17.30443,6.09695 0,0 -17.2789,1.32605 -28.856875,13.05649 l 1.262289,-14.47081 -13.41976,4.12804 c 9.491471,-12.75252 5.676636,-28.63224 5.334991,-34.70429 -0.957489,-17.01741 8.926563,-23.91337 8.926563,-23.91337"
       id="path1350-3-5-6"
       sodipodi:nodetypes="csccccsc" />
    <path
       style="mix-blend-mode:normal;fill:none;stroke:#000000;stroke-width:2;stroke-linecap:butt;stroke-linejoin:miter;stroke-miterlimit:4;stroke-dasharray:none;stroke-opacity:1"
       d="m 65.002176,119.385 c 0,0 -13.118192,2.87311 -22.690938,-2.2643 -9.572746,-5.13741 -11.775563,-14.0696 -11.775563,-14.0696 0,0 -7.298443,-15.717668 -22.3429315,-22.449342 L 22.187941,76.711739 13.617981,65.590361 c 15.270326,4.419343 28.65246,-5.101981 34.37247,-7.16783 C 67.677383,51.312368 72.8315,57.856492 72.8315,57.856492"
       id="path1350-3-59"
       sodipodi:nodetypes="csccccsc" />
    <path
       style="mix-blend-mode:normal;fill:none;stroke:#000000;stroke-width:2.07343;stroke-linecap:butt;stroke-linejoin:miter;stroke-miterlimit:4;stroke-dasharray:none;stroke-opacity:1"
       d="m 146.40044,89.24914 c 0,0 8.48177,1.571065 16.89473,-4.971143 8.41296,-6.542214 16.02047,-8.009238 16.02047,-8.009238 v 0"
       id="path1352-4" />
    <path
       style="mix-blend-mode:normal;fill:none;stroke:#000000;stroke-width:2.07343;stroke-linecap:butt;stroke-linejoin:miter;stroke-miterlimit:4;stroke-dasharray:none;stroke-opacity:1"
       d="m 132.52673,140.03136 c 0,0 1.42762,8.5071 10.45473,14.17191 9.02712,5.66481 13.00997,12.31037 13.00997,12.31037 v 0"
       id="path1352-2" />
    <path
       style="mix-blend-mode:normal;fill:none;stroke:#000000;stroke-width:2.07343;stroke-linecap:butt;stroke-linejoin:miter;stroke-miterlimit:4;stroke-dasharray:none;stroke-opacity:1"
       d="m 64.916633,90.289378 c 0,0 -5.446176,-6.689355 -16.093496,-7.151495 C 38.17583,82.675776 31.428626,78.867679 31.428626,78.867679 v 0"
       id="path1352-0" />
    <path
       style="mix-blend-mode:normal;fill:none;stroke:#000000;stroke-width:2.07343;stroke-linecap:butt;stroke-linejoin:miter;stroke-miterlimit:4;stroke-dasharray:none;stroke-opacity:1"
       d="m 78.197546,139.02979 c 0,0 -8.157865,2.80323 -12.265825,12.63703 -4.107944,9.8338 -10.010481,14.85242 -10.010481,14.85242 v 0"
       id="path1352-08" />
  </g>
</svg>
